TITLE ""
FILE "DISC2Track28.mp3" MP3
  TRACK 01 AUDIO
    TITLE "DISC2Track28_01"
    INDEX 01 00:00:00
  TRACK 02 AUDIO
    TITLE "DISC2Track28_02"
    INDEX 01 00:04:12
  TRACK 03 AUDIO
    TITLE "DISC2Track28_03"
    INDEX 01 00:04:34
  TRACK 04 AUDIO
    TITLE "DISC2Track28_04"
    INDEX 01 00:08:61
  TRACK 05 AUDIO
    TITLE "DISC2Track28_05"
    INDEX 01 00:11:55
  TRACK 06 AUDIO
    TITLE "DISC2Track28_06"
    INDEX 01 00:14:38
  TRACK 07 AUDIO
    TITLE "DISC2Track28_07"
    INDEX 01 00:14:59
  TRACK 08 AUDIO
    TITLE "DISC2Track28_08"
    INDEX 01 00:18:06
  TRACK 09 AUDIO
    TITLE "DISC2Track28_09"
    INDEX 01 00:20:25
  TRACK 10 AUDIO
    TITLE "DISC2Track28_10"
    INDEX 01 00:22:33
  TRACK 11 AUDIO
    TITLE "DISC2Track28_11"
    INDEX 01 00:22:57
  TRACK 12 AUDIO
    TITLE "DISC2Track28_12"
    INDEX 01 00:25:08
  TRACK 13 AUDIO
    TITLE "DISC2Track28_13"
    INDEX 01 00:26:66
  TRACK 14 AUDIO
    TITLE "DISC2Track28_14"
    INDEX 01 00:28:48
  TRACK 15 AUDIO
    TITLE "DISC2Track28_15"
    INDEX 01 00:28:73
  TRACK 16 AUDIO
    TITLE "DISC2Track28_16"
    INDEX 01 00:32:63
  TRACK 17 AUDIO
    TITLE "DISC2Track28_17"
    INDEX 01 00:35:22
  TRACK 18 AUDIO
    TITLE "DISC2Track28_18"
    INDEX 01 00:37:53
  TRACK 19 AUDIO
    TITLE "DISC2Track28_19"
    INDEX 01 00:37:74
  TRACK 20 AUDIO
    TITLE "DISC2Track28_20"
    INDEX 01 00:40:73
  TRACK 21 AUDIO
    TITLE "DISC2Track28_21"
    INDEX 01 00:43:40
  TRACK 22 AUDIO
    TITLE "DISC2Track28_22"
    INDEX 01 00:46:01
  TRACK 23 AUDIO
    TITLE "DISC2Track28_23"
    INDEX 01 00:46:26
  TRACK 24 AUDIO
    TITLE "DISC2Track28_24"
    INDEX 01 00:50:51
  TRACK 25 AUDIO
    TITLE "DISC2Track28_25"
    INDEX 01 00:54:33
  TRACK 26 AUDIO
    TITLE "DISC2Track28_26"
    INDEX 01 00:58:06
  TRACK 27 AUDIO
    TITLE "DISC2Track28_27"
    INDEX 01 00:58:29
  TRACK 28 AUDIO
    TITLE "DISC2Track28_28"
    INDEX 01 01:02:37
  TRACK 29 AUDIO
    TITLE "DISC2Track28_29"
    INDEX 01 01:05:10
  TRACK 30 AUDIO
    TITLE "DISC2Track28_30"
    INDEX 01 01:07:48
  TRACK 31 AUDIO
    TITLE "DISC2Track28_31"
    INDEX 01 01:07:75
  TRACK 32 AUDIO
    TITLE "DISC2Track28_32"
    INDEX 01 01:11:16
  TRACK 33 AUDIO
    TITLE "DISC2Track28_33"
    INDEX 01 01:13:72
  TRACK 34 AUDIO
    TITLE "DISC2Track28_34"
    INDEX 01 01:16:43
  TRACK 35 AUDIO
    TITLE "DISC2Track28_35"
    INDEX 01 01:16:62
  TRACK 36 AUDIO
    TITLE "DISC2Track28_36"
    INDEX 01 01:20:41
  TRACK 37 AUDIO
    TITLE "DISC2Track28_37"
    INDEX 01 01:23:39
  TRACK 38 AUDIO
    TITLE "DISC2Track28_38"
    INDEX 01 01:26:24
  TRACK 39 AUDIO
    TITLE "DISC2Track28_39"
    INDEX 01 01:26:49
  TRACK 40 AUDIO
    TITLE "DISC2Track28_40"
    INDEX 01 01:31:01
  TRACK 41 AUDIO
    TITLE "DISC2Track28_41"
    INDEX 01 01:34:37
  TRACK 42 AUDIO
    TITLE "DISC2Track28_42"
    INDEX 01 01:37:63
